<svg width="16" height="14" viewBox="0 0 16 14" fill="none" xmlns="http://www.w3.org/2000/svg">
<path d="M15.5391 2.25781C15.6445 2.25781 15.75 2.1875 15.75 2.04688V1.20312C15.75 1.09766 15.6445 0.992188 15.5391 0.992188H0.210938C0.0703125 0.992188 0 1.09766 0 1.20312V2.04688C0 2.1875 0.0703125 2.25781 0.210938 2.25781H15.5391ZM15.5391 7.88281C15.6445 7.88281 15.75 7.8125 15.75 7.67188V6.82812C15.75 6.72266 15.6445 6.61719 15.5391 6.61719H0.210938C0.0703125 6.61719 0 6.72266 0 6.82812V7.67188C0 7.8125 0.0703125 7.88281 0.210938 7.88281H15.5391ZM15.5391 13.5078C15.6445 13.5078 15.75 13.4375 15.75 13.2969V12.4531C15.75 12.3477 15.6445 12.2422 15.5391 12.2422H0.210938C0.0703125 12.2422 0 12.3477 0 12.4531V13.2969C0 13.4375 0.0703125 13.5078 0.210938 13.5078H15.5391Z" fill="white"/>
</svg>
