<svg
  xmlns="http://www.w3.org/2000/svg"
  width="23"
  height="22"
  viewBox="0 0 23 22"
>
  <g>
    <g opacity="-1">
      <path
        d="M.27 2.866c.228-.268.557-.422.904-.422h16.534l.234-1.422A1.203 1.203 0 0 1 19.122 0h2.691c.662 0 1.197.546 1.197 1.222 0 .676-.535 1.222-1.197 1.222h-1.678L17.909 16.09c-.01.055-.037.1-.054.152-.019.064-.034.125-.064.185-.038.08-.09.148-.144.218-.037.048-.07.095-.114.138-.069.065-.15.112-.23.157-.046.026-.085.061-.134.08a1.13 1.13 0 0 1-.44.092H3.567a1.209 1.209 0 0 1-1.197-1.222c0-.676.536-1.222 1.197-1.222h12.148l.198-1.223H2.37c-.595 0-1.1-.447-1.184-1.048L-.011 3.84a1.24 1.24 0 0 1 .28-.974zM2.552 4.89l.34 2.444h4.263V4.89zm5.8 0v2.444h3.59V4.89zm0 3.666V11h3.59V8.555zm4.786-3.666v2.444h3.59c.063 0 .12.019.176.037l.405-2.481zm3.572 3.666H13.14V11h3.174zM7.156 11V8.555h-4.09L3.409 11zm9.572 9.167c0 1.012-.803 1.833-1.795 1.833-.99 0-1.794-.821-1.794-1.833 0-1.013.803-1.834 1.794-1.834.992 0 1.795.822 1.795 1.834zm-10.768 0C5.96 21.179 5.156 22 4.165 22c-.99 0-1.795-.821-1.795-1.833 0-1.013.804-1.834 1.795-1.834.991 0 1.795.822 1.795 1.834z"
      />
    </g>
  </g>
</svg>
