<svg xmlns="http://www.w3.org/2000/svg" width="29" height="25" viewBox="0 0 29 25"><g><g opacity="-1"><path fill="#31353d" d="M7.571 22c-.58 0-1.082-.212-1.506-.636-.425-.425-.637-.926-.637-1.507 0-.58.212-1.082.637-1.507a2.06 2.06 0 0 1 1.506-.636c.58 0 1.083.212 1.507.636.424.425.636.926.636 1.507 0 .58-.212 1.082-.636 1.507a2.06 2.06 0 0 1-1.507.635zM3.286 10.782c0-.145.05-.268.15-.368L6.701 7.15c.1-.1.223-.15.368-.15h2.645v4.285H3.286zM22.57 21.999c-.58 0-1.082-.211-1.506-.635-.425-.425-.637-.926-.637-1.507 0-.58.212-1.082.637-1.507a2.06 2.06 0 0 1 1.506-.636c.58 0 1.083.212 1.507.636.424.425.636.926.636 1.507 0 .58-.212 1.082-.636 1.507a2.06 2.06 0 0 1-1.507.635zM28.681.89a1.03 1.03 0 0 0-.753-.318H10.786c-.29 0-.542.106-.754.318a1.029 1.029 0 0 0-.318.754v3.214H7.036c-.302 0-.628.073-.98.218a2.553 2.553 0 0 0-.845.535L1.896 8.925c-.145.145-.27.312-.377.502-.106.19-.184.36-.234.51-.05.152-.087.358-.109.62-.022.262-.036.455-.042.578-.005.123-.005.335 0 .636.006.301.009.497.009.586v5.357c-.29 0-.542.106-.754.318a1.03 1.03 0 0 0-.318.753c0 .168.023.316.067.444a.63.63 0 0 0 .226.31c.106.078.198.142.277.192.078.05.209.084.393.1.184.018.31.028.377.034.067.006.209.006.427 0 .217-.006.343-.008.376-.008h1.072c0 1.183.418 2.193 1.255 3.03.837.837 1.847 1.256 3.03 1.256 1.183 0 2.193-.42 3.03-1.256.838-.837 1.256-1.847 1.256-3.03h6.429c0 1.183.418 2.193 1.255 3.03.837.837 1.847 1.256 3.03 1.256 1.183 0 2.193-.42 3.03-1.256.838-.837 1.256-1.847 1.256-3.03.034 0 .16.002.377.008s.36.006.427 0l.376-.033c.184-.017.316-.05.394-.1.078-.05.17-.115.276-.193a.634.634 0 0 0 .226-.31 1.35 1.35 0 0 0 .067-.444V1.643c0-.29-.106-.542-.318-.754z"/></g></g></svg>