<svg
  xmlns="http://www.w3.org/2000/svg"
  width="23"
  height="23"
  viewBox="0 0 23 23"
>
  <g>
    <g opacity="-1">
      <path
        d="M9.006 17.33s-.26-.154-.478.065l-4.752 4.751c-.947.948-2.272 1.174-3.113.333l-.144-.144c-.84-.841-.615-2.166.332-3.114l4.762-4.761c.209-.209.054-.468.054-.468-2.15-3.585-1.683-8.176 1.404-11.263 3.639-3.639 9.56-3.639 13.198 0 3.639 3.639 3.639 9.56 0 13.198-3.087 3.087-7.678 3.554-11.263 1.404zm9.54-3.126a6.903 6.903 0 0 0 0-9.752 6.903 6.903 0 0 0-9.752 0 6.903 6.903 0 0 0 0 9.752 6.904 6.904 0 0 0 9.752 0zm-9.157-5.43a.965.965 0 0 1-.886-1.339 6.07 6.07 0 0 1 7.947-3.221.963.963 0 0 1-.75 1.774 4.142 4.142 0 0 0-5.423 2.198.963.963 0 0 1-.888.588z"
      />
    </g>
  </g>
</svg>
