<svg xmlns="http://www.w3.org/2000/svg" width="33" height="27" viewBox="0 0 33 27"><g><g opacity="-1"><path fill="#31353d" d="M29.464.428a2.58 2.58 0 0 1 1.892.787 2.58 2.58 0 0 1 .787 1.892v20.357a2.58 2.58 0 0 1-.787 1.892 2.58 2.58 0 0 1-1.892.787H2.678a2.579 2.579 0 0 1-1.891-.787A2.579 2.579 0 0 1 0 23.464V3.107C0 2.37.262 1.74.787 1.215A2.58 2.58 0 0 1 2.678.428zM2.678 2.571a.516.516 0 0 0-.376.159.516.516 0 0 0-.16.377v3.75H30v-3.75a.517.517 0 0 0-.16-.377.516.516 0 0 0-.376-.159zm26.786 21.428c.145 0 .27-.052.377-.159a.515.515 0 0 0 .159-.376V13.285H2.143v10.179c0 .145.053.27.159.376a.514.514 0 0 0 .376.16zM4.286 21.857v-2.143H8.57v2.143zm6.428 0v-2.143h6.429v2.143z"/></g></g></svg>