<svg xmlns="http://www.w3.org/2000/svg" width="38" height="23" viewBox="0 0 38 23"><g><g opacity="-1"><path fill="#31353d" d="M25.184 21.941a.793.793 0 0 1 .139.42.617.617 0 0 1-.188.449.605.605 0 0 1-.445.19H5.697a.768.768 0 0 1-.267-.04.362.362 0 0 1-.178-.14 5.712 5.712 0 0 1-.109-.16.574.574 0 0 1-.059-.23 2.39 2.39 0 0 1-.02-.229v-.26V10.22H1.266c-.343 0-.64-.127-.89-.38A1.233 1.233 0 0 1 0 8.942c0-.32.099-.592.297-.82L6.627.455c.25-.293.574-.44.97-.44.395 0 .718.147.969.44l6.33 7.668c.199.227.297.5.297.819 0 .346-.125.645-.375.899-.251.252-.548.379-.89.379h-3.8v7.669h11.396c.211 0 .376.073.495.22zm12.8-7.888a1.2 1.2 0 0 1-.297.82l-6.33 7.667c-.264.307-.587.46-.97.46s-.706-.153-.97-.46l-6.33-7.668a1.2 1.2 0 0 1-.297-.819c0-.346.126-.646.376-.899.25-.252.547-.379.89-.379h3.799V5.106H16.46a.582.582 0 0 1-.495-.239L12.8 1.033a.637.637 0 0 1 .05-.849.605.605 0 0 1 .444-.19h18.992c.106 0 .195.014.267.04a.367.367 0 0 1 .178.14l.11.16c.026.04.045.116.059.23.013.113.02.19.02.229v11.982h3.798c.343 0 .64.127.89.38s.376.552.376.898z"/></g></g></svg>