<svg xmlns="http://www.w3.org/2000/svg" width="18" height="23" viewBox="0 0 18 23"><g><g><path d="M5.841 5.03H3.867C3.887 2.253 6.13 0 8.885 0h.23c2.755 0 4.998 2.253 5.018 5.03H12.16c-.02-1.677-1.378-3.036-3.044-3.036h-.23c-1.666 0-3.024 1.359-3.044 3.036zM18 6.127v14.88C18 22.105 17.114 23 16.025 23H1.975A1.986 1.986 0 0 1 0 21.006V6.127c0-.22.177-.399.395-.399h17.21c.218 0 .395.179.395.4zm-3.562 2.299c0-.632-.51-1.147-1.135-1.147-.626 0-1.135.515-1.135 1.147s.509 1.146 1.135 1.146 1.135-.514 1.135-1.146zm-8.606 0c0-.632-.509-1.147-1.135-1.147s-1.135.515-1.135 1.147.51 1.146 1.135 1.146c.626 0 1.135-.514 1.135-1.146z"/></g></g></svg>