<svg xmlns="http://www.w3.org/2000/svg" width="35" height="26" viewBox="0 0 35 26"><g><g opacity="-1"><path fill="#31353d" d="M0 0h4.375v21.667H0zm6.562 0H8.75v21.667H6.562zm4.376 0h2.187v21.667h-2.187zM17.5 0h2.187v21.667H17.5zm8.75 0h2.187v21.667H26.25zm6.562 0H35v21.667h-2.188zM21.875 0h1.094v21.667h-1.094zm-6.563 0h1.094v21.667h-1.094zm14.22 0h1.093v21.667h-1.094zM0 23.833h2.187V26H0zm6.562 0H8.75V26H6.562zm4.376 0h2.187V26h-2.187zm10.937 0h2.188V26h-2.188zm10.937 0H35V26h-2.188zm-6.562 0h4.375V26H26.25zm-10.938 0h4.375V26h-4.375z"/></g></g></svg>